<svg width="15" height="17" viewBox="0 0 15 17" fill="none" xmlns="http://www.w3.org/2000/svg">
<path fill-rule="evenodd" clip-rule="evenodd" d="M11.9477 0.283734C12.4252 0.0449525 13.0059 0.238523 13.2447 0.716085C14.3799 2.98644 14.9903 5.6495 14.9903 8.39915C14.9903 11.1577 14.3762 13.7168 13.2522 16.067C13.0218 16.5487 12.4446 16.7524 11.9629 16.5221C11.4812 16.2917 11.2775 15.7145 11.5079 15.2328C12.5108 13.1358 13.0568 10.8611 13.0568 8.39915C13.0568 5.92834 12.507 3.56421 11.5153 1.58079C11.2765 1.10323 11.4701 0.522515 11.9477 0.283734ZM8.50702 1.81192C8.99493 1.59507 9.56626 1.81481 9.78311 2.30272C10.6047 4.15139 11.1232 6.31483 11.1232 8.39925C11.1232 10.4904 10.6016 12.5575 9.78311 14.3991C9.56626 14.8871 8.99493 15.1068 8.50702 14.8899C8.01911 14.6731 7.79937 14.1018 8.01622 13.6139C8.74456 11.9751 9.18969 10.1752 9.18969 8.39925C9.18969 6.6166 8.74142 4.71969 8.01622 3.088C7.79937 2.60009 8.01911 2.02877 8.50702 1.81192ZM4.98705 3.57066C5.46461 3.33187 6.04532 3.52544 6.2841 4.00301C6.94302 5.32084 7.25626 6.92415 7.25626 8.39906C7.25626 9.89058 6.93663 11.3825 6.29718 12.7679C6.07343 13.2527 5.49905 13.4643 5.01427 13.2406C4.52948 13.0168 4.31786 12.4425 4.54161 11.9577C5.06228 10.8295 5.32272 9.61448 5.32272 8.39906C5.32272 7.16701 5.0559 5.87012 4.55469 4.86771C4.31591 4.39015 4.50948 3.80944 4.98705 3.57066ZM1.55809 5.19045C2.04885 4.98012 2.61719 5.20744 2.82753 5.6982C3.16568 6.48717 3.38909 7.4864 3.38909 8.39925C3.38909 9.32819 3.15848 10.2315 2.82754 11.0036C2.61721 11.4944 2.04887 11.7217 1.55811 11.5114C1.06735 11.3011 0.840014 10.7327 1.05034 10.242C1.29946 9.6607 1.45556 9.01714 1.45556 8.39925C1.45556 7.76527 1.29226 7.02432 1.05035 6.45989C0.840012 5.96914 1.06734 5.40079 1.55809 5.19045Z" fill="white"/>
</svg>
