<svg width="16" height="16" viewBox="0 0 16 16"  xmlns="http://www.w3.org/2000/svg">
<path d="M15.716 7.293L8.70766 0.293C8.51218 0.09775 8.25588 0 7.99982 0C7.74377 0 7.48746 0.09775 7.29198 0.293L0.283645 7.293C-0.10732 7.6845 -0.0877969 8.297 0.303168 8.6875C0.695134 9.08 1.26807 9.13775 1.66028 8.746L2.00219 8.40425V15C2.00219 15.5528 2.44997 16 3.00338 16H7.00814V12H9.01052V16H13.0153C13.5687 16 14.0165 15.5528 14.0165 15V8.42375L14.3156 8.7225C14.7065 9.113 15.304 9.078 15.6962 8.68725C16.0874 8.297 16.108 7.6835 15.716 7.293Z" />
</svg>
