<svg width="86" height="44" viewBox="0 0 86 44" fill="none" xmlns="http://www.w3.org/2000/svg">
<path fill-rule="evenodd" clip-rule="evenodd" d="M5.62606 0C2.51887 0 0 2.51888 0 5.62607V43.1332H85.6034V0H5.62606ZM12.6184 13.9186V16.9295C12.8821 16.7537 13.2703 16.4167 13.7831 15.9185C14.2959 15.4204 14.7867 15.0028 15.2556 14.6659C15.7391 14.3142 16.3105 14.0359 16.9698 13.8307C17.6437 13.611 18.2517 13.5011 18.7938 13.5011C19.6583 13.5011 20.5959 13.8088 21.6069 14.4241C22.6178 15.0248 23.4602 16.1017 24.1342 17.6547C25.3063 16.1603 26.4491 15.0981 27.5626 14.4681C28.6907 13.8234 29.7383 13.5011 30.7053 13.5011C32.4195 13.5011 33.8699 14.2117 35.0567 15.6328C36.2434 17.0394 36.8368 18.7755 36.8368 20.8413V32.8187H31.2107V22.3358C31.2107 21.2955 30.925 20.4238 30.3536 19.7205C29.7822 19.0026 29.0936 18.6437 28.2878 18.6437C27.3208 18.6437 26.4857 19.0466 25.7825 19.8524C25.0792 20.6582 24.7276 21.6179 24.7276 22.7313V32.8187H19.1455V22.5995C19.1455 21.5006 18.8524 20.5776 18.2664 19.8304C17.695 19.0685 16.9991 18.6876 16.1786 18.6876C15.2116 18.6876 14.3765 19.1052 13.6732 19.9403C12.97 20.7608 12.6184 21.7497 12.6184 22.9072V32.8187H6.94834V13.9186H12.6184ZM46.4626 24.7093H59.9344V23.8082C59.9344 20.878 59.0187 18.4385 57.1873 16.4899C55.3706 14.5267 53.0996 13.545 50.3745 13.545C47.664 13.545 45.3785 14.4754 43.5178 16.3361C41.6717 18.1968 40.7487 20.497 40.7487 23.2368C40.7487 26.2843 41.6278 28.709 43.3859 30.5111C45.144 32.3132 47.5102 33.2143 50.4844 33.2143C54.5281 33.2143 57.5097 31.5367 59.429 28.1816L54.2644 26.4674C53.2828 28.0351 51.9275 28.8189 50.1987 28.8189C49.2317 28.8189 48.382 28.438 47.6494 27.6761C46.9315 26.9143 46.5359 25.9253 46.4626 24.7093ZM54.1106 20.9293H46.5066C46.6531 19.8011 47.078 18.9294 47.7813 18.314C48.4992 17.6987 49.4002 17.391 50.4844 17.391C52.3744 17.391 53.5831 18.5704 54.1106 20.9293ZM69.5823 13.9626H63.8683V24.4895C63.8683 27.1121 64.7107 29.2145 66.3956 30.7968C68.0805 32.3792 70.3295 33.1703 73.1425 33.1703C75.7944 33.1703 78.0067 32.3865 79.7795 30.8188C81.5669 29.2365 82.4607 27.2806 82.4607 24.951V13.9626H76.7467V23.1489C76.7467 24.4236 76.3877 25.4858 75.6698 26.3355C74.9666 27.1707 74.0948 27.5882 73.0546 27.5882C72.073 27.5882 71.2452 27.156 70.5712 26.2916C69.9119 25.4125 69.5823 24.321 69.5823 23.017V13.9626Z" fill="white"/>
</svg>
